FILE "King of Fighters Kyou, The (Japan).bin" BINARY
  TRACK 01 MODE2/2352
    INDEX 01 00:00:00
  TRACK 02 AUDIO
    INDEX 00 64:20:64
    INDEX 01 64:23:64
  TRACK 03 AUDIO
    INDEX 00 65:51:42
    INDEX 01 65:53:42
  TRACK 04 AUDIO
    INDEX 00 67:27:17
    INDEX 01 67:30:17
